<?xml version="1.0" standalone="no"?>
<!DOCTYPE svg PUBLIC "-//W3C//DTD SVG 20010904//EN"
 "http://www.w3.org/TR/2001/REC-SVG-20010904/DTD/svg10.dtd">
<svg version="1.0" xmlns="http://www.w3.org/2000/svg"
 width="595.000000pt" height="376.000000pt" viewBox="0 0 595.000000 376.000000"
 preserveAspectRatio="xMidYMid meet">

<g transform="translate(0.000000,376.000000) scale(0.100000,-0.100000)"
fill="#000000" stroke="none">
<path d="M1665 3240 c-477 -12 -493 -13 -556 -42 -106 -49 -179 -151 -187
-263 -6 -71 17 -590 28 -655 l8 -45 1 45 c5 190 34 642 43 670 25 79 102 152
174 166 18 3 244 1 501 -5 600 -14 2036 -14 2623 0 350 9 466 8 500 -1 61 -16
141 -98 158 -160 10 -36 37 -467 43 -675 l1 -40 8 45 c11 66 34 596 28 661 -9
106 -83 209 -188 257 -50 24 -71 27 -245 34 -280 11 -2557 17 -2940 8z"/>
<path d="M1636 2805 c-46 -16 -99 -65 -123 -114 -15 -31 -18 -71 -21 -292 l-4
-257 -261 -51 c-246 -49 -772 -181 -749 -189 6 -2 113 15 239 37 235 42 727
109 983 136 767 79 1574 84 2390 15 296 -25 855 -98 1153 -151 126 -22 233
-39 239 -37 23 8 -501 140 -746 188 -143 28 -263 53 -268 56 -4 3 -8 120 -8
260 0 232 -2 258 -19 293 -26 50 -81 97 -128 110 -52 15 -1074 15 -1126 0 -21
-5 -53 -24 -73 -41 -65 -57 -68 -71 -74 -298 l-5 -205 -55 0 -55 0 -5 205 c-6
229 -9 243 -77 299 -21 17 -54 36 -73 41 -21 6 -250 10 -565 10 -425 -1 -538
-4 -569 -15z m1142 -85 c62 -38 73 -83 70 -282 l-3 -173 -75 -2 c-380 -12
-761 -45 -1152 -99 l-48 -7 0 234 c0 262 5 283 69 326 l34 23 536 0 c520 0
537 -1 569 -20z m1543 -3 c64 -43 69 -64 69 -326 l0 -234 -52 7 c-457 61 -870
96 -1134 96 l-94 0 0 183 c0 205 7 233 69 274 l34 23 537 0 537 0 34 -23z"/>
<path d="M438 1893 c7 -3 16 -2 19 1 4 3 -2 6 -13 5 -11 0 -14 -3 -6 -6z"/>
<path d="M5508 1893 c7 -3 16 -2 19 1 4 3 -2 6 -13 5 -11 0 -14 -3 -6 -6z"/>
<path d="M2758 1630 c-172 -21 -303 -106 -348 -227 -25 -66 -27 -180 -4 -246
32 -93 126 -170 249 -202 78 -20 246 -19 358 1 l87 16 0 179 0 179 -150 0
-150 0 0 -55 0 -55 60 0 61 0 -3 -77 -3 -78 -90 0 c-97 1 -148 19 -191 67 -85
92 -75 251 18 321 72 55 212 73 326 43 29 -7 54 -10 56 -7 3 5 36 111 36 117
0 4 -128 23 -185 27 -33 3 -90 1 -127 -3z"/>
<path d="M569 1603 c-12 -31 -191 -529 -220 -610 l-18 -53 94 0 94 0 27 90 27
91 120 -3 120 -3 30 -87 30 -88 99 0 98 0 -19 48 c-10 26 -67 181 -126 345
l-109 297 -118 0 -118 0 -11 -27z m166 -219 c22 -69 41 -132 43 -140 3 -11
-15 -14 -86 -14 l-90 0 24 78 c14 42 32 105 42 140 9 34 19 62 22 62 3 0 23
-57 45 -126z"/>
<path d="M1520 1285 l0 -345 250 0 250 0 0 65 0 65 -160 0 -160 0 0 280 0 280
-90 0 -90 0 0 -345z"/>
<path d="M3761 1608 c-7 -18 -143 -397 -227 -630 l-13 -38 94 0 94 0 28 90 28
90 119 -2 119 -3 31 -87 31 -88 97 0 97 0 -23 63 c-13 34 -70 189 -126 345
l-103 282 -119 0 c-114 0 -119 -1 -127 -22z m209 -370 c0 -5 -38 -8 -85 -8
-51 0 -85 4 -85 10 0 10 64 227 76 260 5 12 93 -236 94 -262z"/>
<path d="M4611 1209 c-28 -9 -32 -14 -27 -32 3 -12 6 -26 6 -30 0 -4 9 -3 21
4 24 12 100 16 117 5 28 -17 10 -33 -40 -39 -69 -7 -106 -24 -124 -58 -20 -40
-18 -57 15 -90 25 -24 38 -29 78 -29 27 0 58 7 70 15 19 13 22 13 27 0 3 -10
19 -15 46 -15 l40 0 0 98 c0 57 -5 107 -13 122 -26 52 -126 74 -216 49z m139
-159 c0 -43 -60 -76 -88 -48 -32 32 -3 67 56 68 25 0 32 -4 32 -20z"/>
<path d="M5047 1201 c-32 -16 -39 -17 -44 -5 -3 9 -20 14 -44 14 l-39 0 0
-190 0 -190 50 0 50 0 0 66 c0 59 2 65 18 58 9 -4 40 -9 67 -11 62 -5 110 22
131 72 55 132 -64 249 -189 186z m78 -66 c49 -48 22 -135 -42 -135 -40 0 -63
27 -63 74 0 46 6 58 35 74 30 17 43 15 70 -13z"/>
<path d="M5437 1200 c-31 -17 -37 -17 -37 -5 0 11 -11 15 -42 15 l-43 0 3
-190 3 -190 44 0 45 0 0 66 c0 59 2 65 18 58 9 -4 40 -9 67 -12 40 -3 57 1 85
20 45 30 60 61 60 124 0 108 -104 167 -203 114z m66 -49 c69 -27 49 -151 -25
-151 -65 0 -93 86 -43 135 27 28 33 29 68 16z"/>
<path d="M1155 769 c237 -3 1060 -6 1830 -6 770 0 1594 3 1830 6 237 4 -587 7
-1830 7 -1243 0 -2066 -3 -1830 -7z"/>
<path d="M393 653 c-7 -2 -13 -16 -13 -30 0 -20 8 -28 40 -41 32 -12 40 -20
38 -36 -3 -18 -10 -21 -45 -20 -24 0 -43 -3 -43 -8 0 -4 20 -8 44 -8 76 0 90
51 23 83 -51 24 -47 50 8 58 l40 6 -40 1 c-22 0 -46 -2 -52 -5z"/>
<path d="M588 653 l32 -4 0 -70 c0 -39 4 -69 10 -69 6 0 10 30 10 69 l0 70 33
4 c17 2 -2 4 -43 4 -41 0 -60 -2 -42 -4z"/>
<path d="M786 607 c-13 -30 -27 -64 -31 -76 -9 -30 13 -27 25 4 8 20 16 25 43
25 26 0 36 -6 45 -25 10 -21 32 -35 32 -21 0 21 -62 142 -74 144 -11 2 -23
-14 -40 -51z m58 -14 c6 -20 4 -23 -18 -23 -29 0 -31 7 -14 45 12 27 19 23 32
-22z"/>
<path d="M960 654 c0 -3 11 -20 25 -38 16 -21 25 -46 25 -69 0 -26 4 -37 15
-37 11 0 15 11 15 36 0 25 9 48 31 75 23 29 27 39 15 39 -8 0 -22 -13 -31 -29
-22 -44 -31 -45 -54 -6 -17 30 -41 47 -41 29z"/>
<path d="M1337 623 c-9 -21 -23 -55 -31 -75 -18 -42 -3 -54 16 -13 9 19 19 25
45 25 26 0 36 -6 45 -25 11 -24 28 -34 28 -16 0 24 -61 141 -73 141 -8 0 -22
-17 -30 -37z m51 -25 c11 -27 11 -28 -19 -28 -26 0 -30 3 -24 18 4 9 10 25 12
35 6 21 14 14 31 -25z"/>
<path d="M1540 585 c0 -43 4 -75 10 -75 6 0 10 27 10 62 l0 61 46 -59 c65 -84
74 -82 74 10 0 90 -18 102 -22 16 l-3 -61 -45 60 c-25 33 -51 61 -57 61 -9 0
-13 -22 -13 -75z"/>
<path d="M1790 585 l0 -75 50 0 c41 0 56 5 75 25 57 56 15 125 -76 125 l-49 0
0 -75z m93 54 c44 -24 49 -58 12 -94 -15 -16 -36 -25 -55 -25 l-30 0 0 65 c0
63 1 65 26 65 14 0 35 -5 47 -11z"/>
<path d="M2150 585 l0 -75 58 2 57 1 -45 6 c-40 5 -45 9 -48 34 -3 26 -1 27
40 28 l43 2 -40 6 c-34 5 -40 10 -40 31 0 21 6 26 40 31 39 6 39 6 -12 8 l-53
1 0 -75z"/>
<path d="M2350 585 c0 -90 18 -101 22 -14 l3 62 48 -62 c27 -33 53 -61 58 -61
5 0 8 35 7 78 l-1 77 -6 -64 -6 -64 -48 62 c-65 83 -77 81 -77 -14z"/>
<path d="M2640 603 c0 -67 -6 -79 -40 -86 -22 -4 -22 -4 5 -6 17 0 36 4 43 11
15 15 16 138 2 138 -5 0 -10 -26 -10 -57z"/>
<path d="M2779 641 c-16 -13 -23 -29 -23 -54 0 -51 27 -77 79 -77 52 0 83 23
91 67 13 68 -88 112 -147 64z m106 -11 c54 -59 -27 -147 -87 -93 -22 20 -23
70 -1 95 21 24 65 23 88 -2z"/>
<path d="M3015 633 c10 -16 24 -37 32 -48 7 -11 13 -32 13 -47 0 -16 5 -28 10
-28 6 0 10 15 10 33 0 21 11 48 31 75 19 26 26 42 17 42 -7 0 -23 -16 -36 -36
l-24 -36 -24 36 c-29 42 -55 50 -29 9z"/>
<path d="M3324 644 c4 -11 15 -45 23 -77 21 -74 40 -72 66 8 l21 60 20 -62
c11 -35 25 -63 32 -63 11 0 67 141 58 149 -8 9 -22 -14 -40 -69 l-18 -55 -19
63 c-10 34 -24 62 -31 62 -7 0 -21 -27 -31 -60 -10 -33 -21 -60 -25 -60 -3 0
-13 26 -21 57 -8 31 -21 59 -28 61 -10 3 -12 -1 -7 -14z"/>
<path d="M3640 585 c0 -43 4 -75 10 -75 6 0 10 32 10 75 0 43 -4 75 -10 75 -6
0 -10 -32 -10 -75z"/>
<path d="M3768 653 l32 -4 0 -70 c0 -39 4 -69 10 -69 6 0 10 30 10 69 l0 70
33 4 c17 2 -2 4 -43 4 -41 0 -60 -2 -42 -4z"/>
<path d="M3970 585 c0 -43 4 -75 10 -75 6 0 10 16 10 35 0 35 0 35 45 35 45 0
45 0 45 -35 0 -19 5 -35 10 -35 6 0 10 32 10 75 0 43 -4 75 -10 75 -5 0 -10
-16 -10 -35 0 -35 0 -35 -45 -35 -45 0 -45 0 -45 35 0 19 -4 35 -10 35 -6 0
-10 -32 -10 -75z"/>
<path d="M4356 606 c-32 -73 -39 -96 -28 -96 5 0 14 11 20 25 9 19 19 25 45
25 26 0 36 -6 45 -25 11 -25 39 -37 29 -12 -34 85 -62 137 -73 137 -8 0 -25
-24 -38 -54z m58 -13 c6 -20 4 -23 -18 -23 -29 0 -31 6 -15 47 11 30 19 24 33
-24z"/>
<path d="M4695 635 c-14 -13 -25 -36 -25 -50 0 -14 11 -37 25 -50 19 -20 33
-25 72 -24 l48 2 -44 7 c-43 7 -81 37 -81 65 0 28 38 58 81 65 l44 7 -48 2
c-39 1 -53 -4 -72 -24z"/>
<path d="M4910 585 l0 -75 53 2 c50 1 50 2 10 5 l-43 4 0 70 c0 39 -4 69 -10
69 -6 0 -10 -32 -10 -75z"/>
<path d="M5100 585 c0 -43 4 -75 10 -75 6 0 10 32 10 75 0 43 -4 75 -10 75 -6
0 -10 -32 -10 -75z"/>
<path d="M5246 639 c-19 -15 -26 -30 -26 -55 0 -52 28 -74 93 -73 l52 2 -49 6
c-51 8 -76 29 -76 66 0 37 25 58 76 66 l49 6 -46 2 c-33 1 -54 -5 -73 -20z"/>
<path d="M5450 585 c0 -43 4 -75 10 -75 6 0 10 13 10 29 0 46 19 48 57 8 47
-51 62 -46 19 6 l-35 43 32 32 c17 18 27 32 21 32 -5 0 -25 -16 -44 -35 -19
-19 -38 -35 -42 -35 -4 0 -8 16 -8 35 0 19 -4 35 -10 35 -6 0 -10 -32 -10 -75z"/>
</g>
</svg>
